<?xml version="1.0" encoding="UTF-8" standalone="no"?>
<svg
   xmlns:dc="http://purl.org/dc/elements/1.1/"
   xmlns:cc="http://creativecommons.org/ns#"
   xmlns:rdf="http://www.w3.org/1999/02/22-rdf-syntax-ns#"
   xmlns:svg="http://www.w3.org/2000/svg"
   xmlns="http://www.w3.org/2000/svg"
   xmlns:sodipodi="http://sodipodi.sourceforge.net/DTD/sodipodi-0.dtd"
   xmlns:inkscape="http://www.inkscape.org/namespaces/inkscape"
   width="327.57068mm"
   height="37.12759mm"
   viewBox="0 0 327.57068 37.12759"
   version="1.1"
   id="svg8"
   inkscape:version="1.0.1 (3bc2e813f5, 2020-09-07)"
   sodipodi:docname="title.svg">
  <defs
     id="defs2" />
  <sodipodi:namedview
     id="base"
     pagecolor="#ffffff"
     bordercolor="#666666"
     borderopacity="1.0"
     inkscape:pageopacity="0.0"
     inkscape:pageshadow="2"
     inkscape:zoom="0.35"
     inkscape:cx="50.972121"
     inkscape:cy="134.56659"
     inkscape:document-units="mm"
     inkscape:current-layer="layer1"
     inkscape:document-rotation="0"
     showgrid="false"
     fit-margin-top="0"
     fit-margin-left="0"
     fit-margin-right="0"
     fit-margin-bottom="0"
     inkscape:window-width="1920"
     inkscape:window-height="1001"
     inkscape:window-x="-9"
     inkscape:window-y="-9"
     inkscape:window-maximized="1" />
  <metadata
     id="metadata5">
    <rdf:RDF>
      <cc:Work
         rdf:about="">
        <dc:format>image/svg+xml</dc:format>
        <dc:type
           rdf:resource="http://purl.org/dc/dcmitype/StillImage" />
        <dc:title></dc:title>
      </cc:Work>
    </rdf:RDF>
  </metadata>
  <g
     inkscape:label="Layer 1"
     inkscape:groupmode="layer"
     id="layer1"
     transform="translate(-92.34696,-112.56259)">
    <g
       id="g17326"
       transform="translate(700.85245,219.41353)">
      <path
         id="path16304"
         style="color:#000000;font-style:normal;font-variant:normal;font-weight:normal;font-stretch:normal;font-size:medium;line-height:normal;font-family:sans-serif;font-variant-ligatures:normal;font-variant-position:normal;font-variant-caps:normal;font-variant-numeric:normal;font-variant-alternates:normal;font-variant-east-asian:normal;font-feature-settings:normal;font-variation-settings:normal;text-indent:0;text-align:start;text-decoration:none;text-decoration-line:none;text-decoration-style:solid;text-decoration-color:#000000;letter-spacing:normal;word-spacing:normal;text-transform:none;writing-mode:lr-tb;direction:ltr;text-orientation:mixed;dominant-baseline:auto;baseline-shift:baseline;text-anchor:start;white-space:normal;shape-padding:0;shape-margin:0;inline-size:0;clip-rule:nonzero;display:inline;overflow:visible;visibility:visible;isolation:auto;mix-blend-mode:normal;color-interpolation:sRGB;color-interpolation-filters:linearRGB;solid-color:#000000;solid-opacity:1;vector-effect:none;fill:#b3b3b3;fill-opacity:1;fill-rule:nonzero;stroke:none;stroke-width:3.77953px;stroke-linecap:butt;stroke-linejoin:miter;stroke-miterlimit:4;stroke-dasharray:none;stroke-dashoffset:0;stroke-opacity:1;color-rendering:auto;image-rendering:auto;shape-rendering:auto;text-rendering:auto;enable-background:accumulate;stop-color:#000000"
         d="m -1925.1445,-397.8457 c -1.0118,0 -2.0065,0.0258 -2.9903,0.0684 l -44.8359,44.83789 c -0.048,1.04805 -0.08,2.10747 -0.08,3.1875 v 2.23633 l 50.2852,-50.28711 c -0.7834,-0.0264 -1.5744,-0.043 -2.3789,-0.043 z m 699.4121,0.0156 c -1.9249,0.0214 -3.7964,0.11195 -5.6133,0.26953 l -42.2754,42.27539 c -0.1699,1.82916 -0.2726,3.71278 -0.3086,5.65235 z m 114.8183,0.0117 -49.4179,49.41797 v 5.34375 l 54.4609,-54.46094 c -1.6306,-0.16325 -3.3109,-0.26405 -5.043,-0.30078 z m -925.3418,0.008 -49.8574,49.85743 v 5.34374 l 54.8692,-54.86914 c -1.6205,-0.17361 -3.2901,-0.28467 -5.0118,-0.33203 z m -6.8183,0.14453 c -2.1021,0.15229 -4.1361,0.40762 -6.1055,0.76172 l -35.9668,35.9668 c -0.3578,1.97517 -0.6224,4.01346 -0.7793,6.12305 z m 823.8359,0.0195 -54.7187,54.71875 v 5.3457 l 59.5332,-59.5332 c -1.5496,-0.23272 -3.1551,-0.41014 -4.8145,-0.53125 z m 101.4707,0.01 c -2.1319,0.17057 -4.1874,0.45775 -6.1816,0.83789 l -35.3106,35.3125 c -0.3829,1.99612 -0.6725,4.05624 -0.8476,6.19141 z m -798.8359,0.35156 -56.4473,56.44727 v 5.34375 l 60.9785,-60.97852 c -1.461,-0.3329 -2.9726,-0.60134 -4.5312,-0.8125 z m -18.9688,0.27735 c -2.453,0.41514 -4.8048,0.98461 -7.0547,1.70898 l -27.8398,27.83985 c -0.7267,2.25184 -1.2992,4.60713 -1.7187,7.06445 z m 835.4942,0.37109 -60.2539,60.25391 v 5.34375 l 64.4882,-64.48828 c -1.3646,-0.42803 -2.7744,-0.80027 -4.2343,-1.10938 z m -925.4121,0.0781 -60.6231,60.62304 v 5.34375 l 64.834,-64.83398 c -1.3552,-0.43749 -2.7606,-0.81399 -4.2109,-1.13281 z m 786.2988,0.17382 c -2.6998,0.59227 -5.2539,1.36709 -7.666,2.32227 l -23.1973,23.19727 c -0.9596,2.41393 -1.7368,4.97908 -2.3418,7.68554 z m 30.2988,0.40821 -65.0644,65.0625 v 5.34961 l 69.1347,-69.13477 c -1.301,-0.48257 -2.6597,-0.90604 -4.0703,-1.27734 z m -698.0156,1.01172 -66.1426,66.14062 v 5.34766 l 69.9102,-69.91016 c -1.2101,-0.58322 -2.4656,-1.10965 -3.7676,-1.57812 z m -392.9551,0.30664 v 1.41601 l 1.416,-1.41601 z m 8.0918,0 -8.0918,8.09179 v 5.34375 l 13.4356,-13.43554 z m 12.0156,0 -20.1074,20.10742 v 5.34375 l 25.4512,-25.45117 z m 12.0176,0 -32.125,32.125 v 5.34375 l 37.4688,-37.46875 z m 39.875,0 -2.0429,3.5664 3.5664,-3.5664 z m 8.1973,0 -19.1895,19.18945 -7.166,12.50977 31.6992,-31.69922 z m 12.0176,0 -47.3223,47.32226 -5.7051,9.95899 0.3164,0.77343 58.0547,-58.05468 z m 12.0175,0 -62.789,62.78906 1.5547,3.78906 66.5781,-66.57812 z m 60.0879,0 -43.1015,43.10156 v 5.34375 l 48.4453,-48.44531 z m 12.0118,0 -55.1133,55.11523 v 5.3457 l 60.459,-60.46093 z m 12.0214,0 -67.1347,67.13281 v 5.34375 l 72.4785,-72.47656 z m 291.7403,0 c -1.1665,0 -2.3011,0.0373 -3.42,0.0937 l -36.7675,36.76757 c -0.017,0.58298 -0.031,1.16768 -0.031,1.76368 v 3.61328 l 42.2383,-42.23828 z m 8.6894,0 -48.9082,48.9082 v 5.3457 l 54.2539,-54.2539 z m 12.0176,0 -60.9258,60.92773 v 5.34375 l 66.2715,-66.27148 z m 12.0195,0 -72.9453,72.94531 v 5.34375 l 73.3125,-73.3125 v -4.97656 z m 12.0176,0 -1.3379,1.33789 v 5.34375 l 6.6817,-6.68164 z m 12.0176,0 -13.3555,13.35547 v 5.34375 l 18.6992,-18.69922 z m 12.0176,0 -25.3731,25.37304 v 5.34375 l 30.7168,-30.71679 z m 12.0175,0 -36.75,36.75 h 5.3438 l 36.75,-36.75 z m 12.0176,0 -36.75,36.75 h 5.3438 l 36.75,-36.75 z m 12.0176,0 -36.75,36.75 h 4.4805 v 0.86328 l 37.6132,-37.61328 z m 12.0176,0 -44.2871,44.28711 v 5.34375 l 49.6308,-49.63086 z m 12.0176,0 -56.3047,56.30468 v 5.34375 l 61.6484,-61.64843 z m 24.8828,0 v 4.49218 l 4.4922,-4.49218 z m 11.1699,0 -11.1699,11.16992 v 5.34375 l 16.5136,-16.51367 z m 12.0156,0 -23.1855,23.18554 v 5.34375 l 28.5312,-28.52929 z m 12.0156,0 -35.2011,35.20312 v 5.34375 l 38.0625,-38.06445 v -2.48242 z m 24.0332,0 -4.1093,4.10937 v 5.34375 l 9.4531,-9.45312 z m 12.0196,0 -16.1289,16.13086 v 5.34375 l 21.4726,-21.47461 z m 12.0156,0 -28.1445,28.14453 v 5.34375 l 33.4883,-33.48828 z m 84.123,0 -0.6113,0.61132 v 5.34571 l 5.9571,-5.95703 z m 12.0196,0 -12.6309,12.63086 v 5.34375 l 17.9746,-17.97461 z m 12.0176,0 -24.6485,24.64843 v 5.34375 l 29.9922,-29.99218 z m 12.0117,0 -36.6602,36.66211 v 5.34765 l 42.0098,-42.00976 z m 12.0234,0 -48.6836,48.68359 v 5.34375 l 53.875,-53.875 c -1.6336,-0.099 -3.3078,-0.15234 -5.0312,-0.15234 z m 63.5352,0 v 1.89258 l 1.8925,-1.89258 z m 8.5625,0 -8.5625,8.5625 v 5.3457 l 13.9082,-13.9082 z m 12.0175,0 -20.58,20.58008 v 5.34765 l 25.9277,-25.92773 z m 12.0196,0 -32.5996,32.59961 v 5.34375 l 37.9433,-37.94336 z m 24.0351,0 -2.166,2.16601 v 5.34375 l 7.5098,-7.50976 z m 12.0176,0 -14.1836,14.18359 v 5.34375 l 19.5274,-19.52734 z m 12.0176,0 -26.2012,26.20117 v 5.34375 l 31.5449,-31.54492 z m -835.9863,0.11914 c -2.087,0.12154 -4.0886,0.34349 -6.0079,0.66406 l -29.7207,29.7207 c -0.2803,1.88215 -0.4648,3.83866 -0.539,5.88282 z m 847.8476,0.0371 -38.0625,38.0625 v 5.34375 l 38.0625,-38.0625 z m -763.9687,0.20312 c -5.5377,2.18431 -10.4172,5.37027 -14.625,9.57813 -4.1399,4.16961 -7.2822,9.00657 -9.4492,14.49609 z m 925.0234,0.3086 c -5.2252,2.17266 -9.8525,5.25484 -13.8672,9.26953 -3.9501,3.97851 -6.9924,8.56392 -9.1465,13.74414 z m -305.8867,0.10937 -59.918,59.91992 v 5.34375 l 64.4219,-64.42383 c -1.4536,-0.33235 -2.9572,-0.61015 -4.5039,-0.83984 z m -391.4121,0.18359 c -2.6415,0.499 -5.1162,1.19765 -7.4297,2.08594 l -19.1582,19.15821 c -0.8425,2.26436 -1.4808,4.68934 -1.9238,7.26757 z m 739.7129,0.0195 -69.3125,69.3125 v 5.3457 l 72.8203,-72.82031 c -1.1229,-0.67109 -2.2949,-1.27927 -3.5078,-1.83789 z m -925.4805,0.14648 -69.6133,69.61328 v 5.34375 l 73.0918,-73.0918 c -1.1136,-0.67927 -2.275,-1.29807 -3.4785,-1.86523 z m 336.418,0.0703 -67.125,67.125 v 5.34375 l 67.125,-67.125 z m 479.8632,0.82813 -73.7382,73.73828 v 5.34375 l 38.5039,-38.50391 c 0.9914,-5.24207 3.6863,-7.93824 8.0859,-8.08593 l 30.4668,-30.46876 c -1.0517,-0.72953 -2.1578,-1.40439 -3.3184,-2.02343 z m -372.6132,0.0742 -38.0625,38.0625 v 5.34375 l 38.0625,-38.0625 z m 143.207,1 -31.3047,31.30664 h 5.3438 l 29.7929,-29.79493 c -1.2315,-0.55467 -2.5096,-1.05731 -3.832,-1.51171 z m -727.959,0.25 c -4.0329,1.64987 -7.5565,3.90431 -10.5605,6.77539 -3.2808,3.16355 -5.7823,6.93884 -7.5254,11.31054 z m 258.7031,0.33203 -31.5371,31.53711 c 1.0003,-0.47751 2.1634,-0.71875 3.4922,-0.71875 0.8302,0 1.5906,0.0975 2.2969,0.27148 l 28.8125,-28.8125 c -0.979,-0.81227 -1.9986,-1.57342 -3.0645,-2.27734 z m 815.3008,1.87695 -29.0664,29.06641 c 1.4611,0.22524 2.6874,0.78088 3.6758,1.66992 l 28.2227,-28.22266 c -0.8991,-0.89364 -1.8478,-1.72642 -2.8321,-2.51367 z m -925.5371,0.20313 -28.9219,28.92187 c 1.4059,0.2811 2.5715,0.89772 3.5137,1.83008 l 28.2129,-28.21289 c -0.8907,-0.90115 -1.829,-1.74401 -2.8047,-2.53906 z m -96.2148,0.0742 -73.3125,73.31446 v 5.3457 l 39.3925,-39.39258 c -0.1314,-0.59894 -0.205,-1.25337 -0.205,-1.97851 0,-3.95369 2.8441,-6.06614 8.5234,-6.3418 l 25.6016,-25.60156 z m -156.4688,0.24415 -38.0625,38.0625 v 5.3457 l 38.0625,-38.0625 z m 912.8438,0.4746 -38.0625,38.0625 v 5.34375 l 38.0625,-38.0625 z m -72.459,0.35547 -27.8906,27.89063 c 1.5857,0.26988 2.9569,0.67982 4.1113,1.23242 l 26.9629,-26.96094 c -1.0169,-0.76936 -2.0779,-1.49073 -3.1836,-2.16211 z m 228.207,0.12696 -28.8281,28.82812 c 0.5653,0.41963 1.0472,0.92645 1.4238,1.54102 0.2809,0.45823 0.5258,1.00912 0.7403,1.63867 l 29.246,-29.2461 c -0.3037,-0.36511 -0.6059,-0.73182 -0.9238,-1.08007 -0.5293,-0.5846 -1.0865,-1.14011 -1.6582,-1.68164 z m -764.7383,0.9707 c -0.7058,0.62033 -1.4003,1.25776 -2.0722,1.92969 -0.6378,0.64238 -1.245,1.3048 -1.836,1.97851 z m 329.9903,1.14648 -38.0625,38.0625 v 5.34766 l 38.0625,-38.06055 z m -264.4297,0.0547 -28.2578,28.25781 c 0.7053,1.0025 1.227,2.26248 1.5703,3.77344 l 29.1191,-29.11914 c -0.6666,-0.88377 -1.3583,-1.74326 -2.0957,-2.55859 -0.109,-0.12154 -0.2255,-0.23372 -0.3359,-0.35352 z m 814.7676,2.4082 -28.92,28.91993 c 0.3767,1.34083 0.5944,2.90303 0.6524,4.6914 l 30.4805,-30.48047 c -0.6884,-1.09125 -1.4312,-2.13001 -2.2129,-3.13086 z m -709.0567,0.0332 -25.1172,25.11719 c 0.2752,-0.008 0.5482,-0.0176 0.836,-0.0176 h 4.5254 l 19.7558,-19.75586 z m -216.5332,0.2207 -29.0137,29.01367 c 0.3471,1.3709 0.5322,2.96639 0.5645,4.7793 l 30.6367,-30.63672 c -0.6806,-1.09893 -1.4134,-2.14775 -2.1875,-3.15625 z m 588.5625,0.28516 -26.9922,26.99414 c 0.7037,1.19553 1.0711,2.61151 1.084,4.25976 l 28.5117,-28.51172 c -0.8179,-0.93834 -1.6843,-1.85306 -2.6035,-2.74218 z m 120.1582,0.0176 -38.0625,38.0625 v 5.34376 l 38.0625,-38.0625 z m -901.4472,0.14844 -58.9903,58.99024 1.5528,3.79101 50.0097,-50.00976 z m 515.8535,0.88672 -23.5391,23.54102 h 5.3457 l 18.1934,-18.19532 z m 492.2402,0.4707 -31.0801,31.08008 c 0.057,0.94855 0.09,1.95716 0.09,3.05274 v 2.20117 l 32.8613,-32.86133 c -0.5765,-1.21414 -1.1987,-2.3736 -1.8711,-3.47266 z m -384.9902,0.4375 -38.0625,38.0625 v 5.34375 l 38.0625,-38.0625 z m -314.4707,2.01758 -31.2793,31.2793 v 5.34375 l 33.0898,-33.08984 c -0.5574,-1.22242 -1.1592,-2.40166 -1.8105,-3.53321 z m -218.0293,1.72071 -18.8946,18.89453 h 5.3457 l 13.5489,-13.54883 z m -156.4688,0.24218 -38.0625,38.0625 v 5.34571 l 38.0625,-38.0625 z m 912.8438,0.47461 -38.0625,38.0625 v 5.34375 l 38.0625,-38.0625 z m -60.1719,0.084 -46.4219,46.42383 v 5.3457 l 48.459,-48.46094 c -0.6209,-1.1315 -1.2997,-2.23374 -2.0371,-3.30859 z m 336.0801,0.4082 -32.8145,32.81445 v 5.34375 l 34.4004,-34.40039 c -0.4795,-1.30047 -1.0122,-2.54849 -1.5859,-3.75781 z m -925.6426,0.30664 -32.9531,32.95313 v 5.34375 l 34.5156,-34.51563 c -0.4716,-1.30797 -0.9967,-2.56442 -1.5625,-3.78125 z m 370.7344,1.80078 -38.0625,38.0625 v 5.34375 l 38.0625,-38.0625 z m 443.8984,0.74414 -34.7734,34.77539 v 5.34375 l 35.9843,-35.98437 c -0.356,-1.43528 -0.7632,-2.80939 -1.2109,-4.13477 z m -602.6172,1.75196 -13.082,13.08203 h 5.3437 l 7.7383,-7.73828 z m 492.1875,0.52343 -38.0625,38.0625 v 5.34375 l 38.0625,-38.0625 z m -589.1289,0.2793 -34.9648,34.96484 v 5.34375 l 36.1445,-36.14648 c -0.3468,-1.43252 -0.7383,-2.82112 -1.1797,-4.16211 z m 203.5352,0.76172 -11.5176,11.51758 h 5.3437 l 6.1739,-6.17383 z m 107.25,0.90234 -38.0625,38.0625 v 5.34375 l 38.0625,-38.0625 z m 167.8652,0.375 -50.584,50.58399 v 5.3457 l 51.9063,-51.90625 c -0.3727,-1.37417 -0.8125,-2.71596 -1.3223,-4.02344 z m 335.0762,1.41406 -35.9727,35.97266 v 5.34375 l 36.9258,-36.92578 c -0.268,-1.51128 -0.5902,-2.97114 -0.9531,-4.39063 z m -925.6934,0.35743 -36.0605,36.06054 v 5.34571 l 36.9883,-36.98828 c -0.2603,-1.52001 -0.5725,-2.98989 -0.9278,-4.41797 z m -109.748,1.58984 -6.8789,6.87891 h 5.3437 l 1.5352,-1.53516 z m -156.4688,0.24414 -38.0625,38.06445 v 5.34375 l 38.0625,-38.0625 z m 912.8438,0.47461 -38.0625,38.0625 v 5.34375 l 38.0625,-38.0625 z m 167.2129,1.03125 -37.0879,37.08789 v 5.34375 l 37.6758,-37.67383 c -0.1502,-1.64076 -0.3503,-3.22208 -0.5879,-4.75781 z m -446.2129,1.57227 -38.0625,38.0625 v 5.34375 l 38.0625,-38.0625 z m -253.3985,1.0332 -37.2265,37.22656 v 5.34375 l 37.7695,-37.76953 c -0.1339,-1.64579 -0.3137,-3.24728 -0.543,-4.80078 z m 420.1797,0.42578 -38.0625,38.0625 v 5.34375 l 38.0625,-38.0625 z m -325.5,1.0332 -1.0644,1.06446 h 1.0644 z m 384.1446,0.40821 -52.2793,52.27929 1.6543,3.69336 51.0117,-51.01172 c -0.046,-1.6939 -0.1734,-3.34824 -0.3867,-4.96093 z m 108.0429,0.11523 -38.0625,38.0625 v 5.34375 l 38.0625,-38.0625 z m -278.3437,1.94336 -38.0625,38.0625 v 5.3457 l 38.0625,-38.06445 z m 504.6718,0.0586 -37.7031,37.70313 v 5.34375 l 38.0156,-38.01563 c -0.054,-1.72582 -0.1626,-3.39802 -0.3125,-5.03125 z m -865.3203,0.0684 -39.5703,39.57227 v 5.34375 l 38.0879,-38.08789 c 0.1008,-2.84854 0.5917,-5.12779 1.4824,-6.82813 z m -60.4277,0.34375 -37.7363,37.73633 v 5.34571 l 38.0234,-38.02344 c -0.046,-1.73431 -0.1451,-3.41696 -0.2871,-5.0586 z m -218.7324,2.42188 -38.791,38.79101 1.5527,3.79102 29.8105,-29.81055 z m -49.1602,1.08984 -38.0625,38.0625 v 5.34375 l 38.0625,-38.0625 z m 552.6563,0.13867 -38.0625,38.0625 v 5.34571 l 38.0625,-38.0625 z m 360.1875,0.33399 -38.0625,38.0625 v 1.08008 c 0,1.42066 0.041,2.80054 0.1015,4.16211 l 37.961,-37.96094 z m 168.1504,0.0898 -38.0254,38.02539 v 5.34375 l 38.0625,-38.0625 v -2.72265 c 0,-0.87571 -0.017,-1.73258 -0.037,-2.58399 z m 58.6132,1.47461 -38.1386,38.13867 v 5.34571 l 38.0625,-38.0625 v -3.375 c 0,-0.71914 0.031,-1.39394 0.076,-2.04688 z m -925.8164,0.48242 -38.1035,38.10352 v 5.34375 l 38.0625,-38.0625 v -3.82031 c 0,-0.54149 0.015,-1.0605 0.041,-1.56446 z m 420.0528,0.55274 -38.0625,38.0625 v 5.34375 l 42.8633,-42.86328 h -4.8008 z m -252.5742,0.20898 -38.0508,38.05078 v 5.34571 l 38.0625,-38.06446 v -4.52929 c 0,-0.27148 -0.01,-0.53342 -0.012,-0.80274 z m 60.0273,0.0625 -39.4844,39.48438 v 3.81836 c 0,0.50684 0.015,1.00068 0.027,1.49804 l 41.7675,-41.76757 c -0.087,-0.0457 -0.1833,-0.0885 -0.2636,-0.13672 -1.0131,-0.64835 -1.6907,-1.61759 -2.0469,-2.89649 z m 203.1406,1.15235 -48.6562,48.65625 v 5.34375 l 48.6562,-48.65625 z m 156.1875,0.0391 -38.0625,38.0625 v 5.34375 l 38.0625,-38.0625 z m 58.6738,1.41211 -48.5918,48.59179 1.6524,3.69141 45.3203,-45.32031 c 0.7534,-2.24428 1.2932,-4.56511 1.6191,-6.96289 z m 108.0137,0.14453 -38.5703,38.57031 c -0.9207,3.99726 -3.0958,6.17 -6.5234,6.52344 l -30.2168,30.2168 c 1.0471,0.74533 2.1373,1.43648 3.2715,2.07226 l 72.039,-72.03906 z m -841.7715,0.55859 -42.3418,42.33985 c 10e-5,6.6e-4 0,10e-4 0,0.002 0.064,1.70208 0.2078,3.34101 0.4141,4.92969 l 46.3867,-46.38672 c -1.8737,-0.14617 -3.3591,-0.44097 -4.459,-0.88477 z m 323.5528,0.91407 -46.7657,46.76562 c 0.215,1.55266 0.4973,3.05115 0.8497,4.49414 l 51.1777,-51.17773 h -2.668 c -0.9358,0 -1.7913,-0.0307 -2.5937,-0.082 z m 576.8125,0.0234 -38.0625,38.0625 v 5.34375 l 38.0625,-38.0625 z m -889.3477,0.0586 -51.8711,51.87109 c 0.3676,1.4 0.8027,2.7468 1.3028,4.04102 l 55.9121,-55.91211 z m 12.0176,0 -60.4356,60.43554 c 0.6423,1.12803 1.3448,2.2076 2.1114,3.23633 l 29.7168,-29.71484 c 0.1883,-1.79761 0.8502,-3.12082 2,-3.95703 0.7643,-0.53168 1.811,-0.91703 3.123,-1.16602 l 28.832,-28.83398 z m 312.4531,0 -56.2461,56.24609 c 0.5036,1.2646 1.0732,2.47652 1.7051,3.63867 l 59.8848,-59.88476 z m 732.9707,0.0879 -38.0625,38.0625 v 5.34375 l 38.0625,-38.0625 z m -721.3125,0.27148 -28.3769,28.37696 c 1.0291,-0.1553 2.2031,-0.23633 3.5332,-0.23633 h 2.0468 l 22.7969,-22.79688 z m 216.2813,0.0293 -38.0625,38.0625 v 5.3457 l 38.0625,-38.0625 z m -420.75,0.14453 -38.0625,38.0625 v 5.3457 l 38.0625,-38.0625 z m 58.5937,1.49609 -38.0625,38.0625 v 5.34375 l 38.0625,-38.0625 z m 484.0899,1.94336 c -0.5322,0.0353 -1.0791,0.0586 -1.6524,0.0586 h -3 v 4.59375 z m -810.9024,0.39844 -38.0625,38.0625 v 5.34375 l 38.0625,-38.0625 z m 552.6563,0.14258 -38.0625,38.0625 v 5.3457 l 38.0625,-38.0625 z m 360.1875,0.33008 -37.4551,37.45508 c 0.194,1.58612 0.4359,3.12531 0.7246,4.61914 l 36.7305,-36.73047 z m 168.1875,0.0566 -38.0625,38.06445 v 5.34375 l 38.0625,-38.06445 z m 58.5,1.58594 -38.0625,38.0625 v 5.34374 l 38.0625,-38.0625 z m -985.5,0.0762 -21.9375,21.9375 h 5.3437 l 16.5938,-16.59375 z m 59.7187,0.36914 -38.0625,38.0625 v 5.34375 l 38.0625,-38.0625 z m 167.5313,0.71289 -38.0625,38.06445 v 5.34375 l 38.0625,-38.0625 z m 263.1562,1.22265 -48.6562,48.65625 v 5.34375 l 48.6562,-48.65625 z m 156.1875,0.0391 -38.0625,38.06445 v 5.34375 l 38.0625,-38.06445 z m 166.6875,1.55273 -67.5215,67.52344 c 1.2815,0.51185 2.6107,0.96371 3.9844,1.35937 l 63.5371,-63.53711 z m -926.4394,1.10742 -27.0118,27.01172 1.5547,3.79102 27.1895,-27.18946 z m 985.0332,0.38477 -38.0625,38.0625 v 5.34375 l 41.3886,-41.38867 h -3.3261 z m 168.0937,0.1543 -38.0625,38.0625 v 5.34375 l 38.0625,-38.0625 z m -721.3125,0.27148 -16.123,16.12305 h 5.3437 l 10.7793,-10.7793 z m 216.2813,0.0293 -38.0625,38.0625 v 5.3457 l 38.0625,-38.0625 z m -420.75,0.14258 -38.0625,38.06445 v 5.34375 l 38.0625,-38.06446 z m 767.6914,1.41992 -48.0664,48.06836 v 5.34375 l 49.0312,-49.03321 v -4.3789 z m -709.0977,0.0703 -38.0625,38.0625 v 5.34375 l 38.0625,-38.0625 z m -326.8125,2.34961 -38.0625,38.0625 v 5.34375 l 38.0625,-38.0625 z m 552.6563,0.13867 -38.0625,38.0625 v 5.34375 l 38.0625,-38.06055 z m 360.1875,0.33399 -35.4317,35.43164 c 0.4054,1.37448 0.8599,2.70161 1.3594,3.98437 l 34.0723,-34.07227 z m 168.1875,0.0527 -38.0625,38.0625 v 5.34375 l 38.0625,-38.0625 z m 58.5,1.58984 -38.0625,38.0625 v 5.34375 l 38.0625,-38.0625 z m -985.5,0.0762 -9.92,9.91993 h 5.3438 l 4.5762,-4.57617 z m 59.7187,0.36915 -38.0625,38.0625 v 5.34375 l 38.0625,-38.0625 z m 167.5313,0.70898 -38.0625,38.0625 v 5.3457 l 38.0625,-38.0625 z m -336.5117,0.0312 -27.4141,27.41406 1.5527,3.79102 27.5957,-27.5957 z m 599.6679,1.19531 -8.834,8.83399 h 5.3438 l 3.4902,-3.49024 z m 156.1875,0.0391 -38.0625,38.06445 v 5.34375 l 38.0625,-38.0625 z m 166.6875,1.55664 -58.0976,58.09765 c 1.5386,0.25632 3.1287,0.44753 4.7656,0.58008 l 53.332,-53.33203 z m 226.6875,1.64257 -38.0625,38.0625 v 5.34375 l 38.0625,-38.0625 z m -721.3125,0.27149 -4.1055,4.10547 h 4.1055 z m 216.2813,0.0312 -38.0625,38.0625 v 5.34375 l 38.0625,-38.0625 z m -420.75,0.14453 -38.0625,38.0625 v 5.34375 l 38.0625,-38.0625 z m 768.6562,0.45117 -49.0312,49.0293 v 4.13672 h 1.207 l 47.8242,-47.82227 z m -710.0625,1.03906 -38.0625,38.06446 v 5.34375 l 38.0625,-38.06446 z m 516.3438,0.40039 -28.7325,28.73243 1.6524,3.6914 28.6504,-28.65039 z m -794.4883,1.34766 -27.8203,27.82031 1.5547,3.78907 27.998,-27.99805 z m -48.668,0.59766 -38.0625,38.0625 v 5.34375 l 38.0625,-38.0625 z m 552.6563,0.14062 -38.0625,38.06446 v 5.34374 l 38.0625,-38.06445 z m 360.1875,0.33203 -31.9844,31.98438 c 0.6151,1.16529 1.2757,2.28532 1.9844,3.35937 l 30.0937,-30.09375 c -0.058,-0.71456 -0.094,-1.45832 -0.094,-2.2539 z m 168.1875,0.0527 -38.0625,38.0625 v 5.34375 l 38.0625,-38.0625 z m 58.5,1.58984 -38.0625,38.0625 v 5.34375 l 38.0625,-38.0625 z m -925.7813,0.44531 -38.0625,38.0625 v 5.34571 l 38.0625,-38.0625 z m 420.0938,0.51172 -38.0625,38.0625 v 5.34375 l 38.0625,-38.0625 z m -252.5625,0.19922 -38.0625,38.0625 v 5.34375 l 38.0625,-38.0625 z m 419.3437,1.25977 -38.0625,38.0625 v 5.3457 l 38.0625,-38.0625 z m -362.041,1.52539 -29.4805,29.48047 c 0.7652,1.00401 1.589,1.96131 2.4746,2.86914 l 27.8086,-27.8086 c -0.5489,-0.96861 -0.8242,-2.28075 -0.8242,-3.9414 0,-0.20714 0.011,-0.40294 0.022,-0.59961 z m 528.7031,0.0566 -46.8359,46.83594 c 1.9463,-0.0288 3.8382,-0.13852 5.6777,-0.32813 l 40.8106,-40.81055 c 0.1963,-1.84529 0.3113,-3.7446 0.3476,-5.69726 z m -120.6015,0.42969 -28.545,28.54492 1.6524,3.6914 28.4609,-28.46093 z m -794.1211,0.97851 -28.2227,28.22266 1.5528,3.79101 28.4023,-28.40234 z m 1141.4355,0.21289 -38.0625,38.0625 v 3.98438 h 1.3594 l 36.7031,-36.70313 z m -505.0312,0.30274 -38.0625,38.0625 v 3.68164 h 1.6621 l 36.4004,-36.40039 z m -420.75,0.14062 -38.0625,38.06055 v 3.54297 h 1.8066 l 36.2559,-36.25586 z m 768.6562,0.45117 -10.6836,10.6836 h 5.3438 l 5.3398,-5.33985 z m -710.0625,1.04297 -38.0625,38.06055 v 2.04883 h 3.2949 l 34.7676,-34.76758 z m 587.4375,1.41211 -28.5371,28.53711 c 0.1701,0.1979 0.3318,0.40363 0.5059,0.59766 0.6749,0.74629 1.3843,1.44813 2.1113,2.1289 l 28.3691,-28.36914 c -1.0217,-0.6769 -1.834,-1.64674 -2.4492,-2.89453 z m -793.1738,0.0273 -27.7188,27.71876 c 0.3141,0.30982 0.6265,0.62169 0.9551,0.91992 0.609,0.54755 1.249,1.06368 1.9024,1.5664 l 28.5058,-28.50586 c -1.1507,-0.19849 -2.048,-0.46565 -2.6582,-0.81054 -0.3801,-0.23141 -0.7067,-0.53052 -0.9863,-0.88868 z m -121.0762,0.90626 -37.7637,37.76367 h 5.3438 l 32.4199,-32.41993 z m 552.6563,0.13671 -37.627,37.62696 h 5.3457 l 32.2813,-32.28125 z m 528.375,0.38868 -37.2383,37.23828 h 5.3457 l 31.8926,-31.89258 z m -637.25,0.33398 -28.6426,28.64258 c 1.0163,0.76542 2.0853,1.47779 3.207,2.13672 l 30.4551,-30.4552 c -1.9866,-0.0227 -3.686,-0.12461 -5.0195,-0.32422 z m -312.795,0.3418 -30.7558,30.75586 c 1.1396,0.64228 2.3309,1.23194 3.5762,1.76757 l 32.5234,-32.52343 z m 12.0176,0 -34.2754,34.27539 c 1.3789,0.40283 2.8101,0.7529 4.295,1.04883 l 35.3242,-35.32422 z m 12.0176,0 -36.1895,36.18945 c 1.6191,0.16253 3.2904,0.27276 5.0157,0.32812 l 32.6211,-32.62109 v -3.89648 z m 300.4355,0 -32.6679,32.66797 c 1.2551,0.52647 2.5649,0.99823 3.9258,1.41796 L -1801,-303.25195 Z m 12.0176,0 -35.4004,35.40039 c 1.4951,0.28667 3.0434,0.51958 4.6446,0.69922 l 36.0996,-36.09961 z m 672.0567,0.91406 -35.6485,35.64844 h 5.3438 l 30.3047,-30.30469 z m -925.7813,0.44531 -35.2031,35.20313 h 5.3457 l 29.8574,-29.85743 z m 636.4629,0.45508 -28.3555,28.35547 1.6524,3.69141 28.2734,-28.27344 z m -216.3691,0.0566 -34.6914,34.69141 h 5.3457 l 29.3457,-29.34571 z m -252.5625,0.19922 -34.4922,34.49219 h 5.3437 l 29.1485,-29.14844 z m -324.8223,0.35156 -28.625,28.625 1.5527,3.79102 28.8067,-28.80469 z m 744.166,0.91016 -33.2304,33.23047 h 5.3476 l 27.8828,-27.88282 z m -325.5,1.03515 -32.1621,32.16211 c 0.7437,0.0197 1.4926,0.0332 2.2559,0.0332 h 3.0547 l 26.8515,-26.85157 z m 550.7813,2.01172 -30.1836,30.1836 h 5.3437 l 24.8399,-24.83985 z m 168.0937,0.15235 -30.0312,30.03125 h 5.3437 l 24.6875,-24.6875 z m -228.5215,0.1914 -31.2402,31.24219 c 2.9877,-0.77887 5.8031,-1.81725 8.4512,-3.10742 l 19.6543,-19.6543 c 1.298,-2.657 2.346,-5.48148 3.1347,-8.48047 z m -276.5097,0.11328 -29.7266,29.72657 h 5.3438 l 24.3828,-24.38282 z m -420.75,0.14258 -29.584,29.58399 h 5.3437 l 24.2403,-24.24024 z m 58.5937,1.48828 -28.0957,28.09571 h 5.3457 l 22.75,-22.75 z m 526.9297,1.83594 -26.2598,26.25977 h 5.3438 l 22.4844,-22.48438 z m -793.3848,0.24219 -26.0175,26.01758 h 5.3457 l 22.4062,-22.40625 z m 96.1114,0.0254 -25.9922,25.99219 h 5.3437 l 20.6485,-20.64844 z m -156.4688,0.24414 -25.748,25.74805 h 5.3457 l 20.4023,-20.40235 z m 552.6563,0.13867 -25.6094,25.60938 h 5.3437 l 20.2657,-20.26563 z m 528.375,0.38867 -25.2207,25.22071 h 5.3457 l 19.875,-19.875 z m 58.5,1.58985 -23.6309,23.63086 h 5.3438 l 18.2871,-18.28711 z m -925.7813,0.44531 -23.1855,23.18555 h 5.3457 l 17.8398,-17.83985 z m 420.0938,0.51172 -22.6739,22.67383 h 5.3457 l 17.3282,-17.32813 z m -252.5625,0.19922 -22.4746,22.47461 h 5.3437 l 17.1309,-17.13086 z m 419.3437,1.26172 -21.2129,21.21289 h 5.3438 l 15.8691,-15.86914 z m -325.5,1.03515 -20.1777,20.17774 h 5.3437 l 14.834,-14.83399 z m 550.7813,2.01758 -18.1602,18.16016 h 5.3438 l 12.8164,-12.81641 z m 168.0937,0.14649 -18.0137,18.01367 h 5.3457 l 12.668,-12.66797 z m -1129.7441,0.11718 -17.8985,17.89649 h 5.3457 l 14.2852,-14.28516 z m 793.0137,0.12696 -17.7696,17.76953 h 5.3438 l 13.9961,-13.9961 z m -168.3008,0.0586 -17.711,17.71094 h 5.3457 l 12.3653,-12.36524 z m -420.75,0.14648 -17.5645,17.56446 h 5.3438 l 12.2207,-12.22071 z m 58.5937,1.49219 -16.0722,16.07227 h 5.3437 l 10.7285,-10.72852 z m -170.3437,2.09766 -13.9746,13.97461 h 5.3437 l 8.6309,-8.63086 z m -156.4688,0.24609 -13.7285,13.72852 h 5.3438 l 8.3847,-8.38477 z m 552.6563,0.14258 -13.586,13.58594 h 5.3438 l 8.2422,-8.24219 z m 528.375,0.38477 -13.2012,13.20117 h 5.3437 l 7.8575,-7.85743 z m 58.5,1.58789 -11.6133,11.61328 h 5.3437 l 6.2696,-6.26953 z m -925.7813,0.44531 -11.168,11.16797 h 5.3438 l 5.8242,-5.82422 z m 420.0938,0.51172 -10.6563,10.65625 h 5.3457 L -1627.957,-272 Z m -252.5625,0.19922 -10.4571,10.45703 h 5.3438 l 5.1133,-5.11328 z m -313.1309,0.67773 -9.7793,9.7793 h 5.3438 l 6.1679,-6.16797 z m 792.6484,0.49805 -9.2812,9.28125 h 5.3437 l 5.5059,-5.50586 z m -60.1738,0.0859 -9.1953,9.19532 h 5.3438 l 3.8515,-3.85157 z m -325.5,1.03321 -8.1621,8.16211 h 5.3457 l 2.8164,-2.81641 z m 550.7813,2.01367 -6.1485,6.14844 h 5.3438 l 0.8047,-0.80469 z m 168.0937,0.14844 -6,6 h 5.3457 l 0.6543,-0.6543 z m -505.0312,0.30859 -5.6914,5.69141 h 5.3437 l 0.3477,-0.34766 z m -420.75,0.13672 -5.5547,5.55469 h 5.3437 l 0.211,-0.21094 z m 58.5937,1.49414 -4.0605,4.06055 h 4.0605 z m -170.3437,2.10352 -1.9571,1.95703 h 1.9571 z m -156.4688,0.24609 -1.7109,1.71094 h 1.7109 z m 72.0469,0.0527 -1.6582,1.65821 h 2.4551 z m 480.6094,0.084 -1.5743,1.57422 h 1.5743 z m 528.375,0.39062 -1.1836,1.1836 h 1.1836 z m -216.7051,0.39258 -0.791,0.79102 h 1.1211 z"
         transform="scale(0.26458333)" />
      <path
         id="path17315"
         style="font-style:normal;font-variant:normal;font-weight:bold;font-stretch:normal;font-size:50.8px;line-height:1.25;font-family:'Bauhaus 93';-inkscape-font-specification:'Bauhaus 93 Bold';letter-spacing:0px;word-spacing:0px;fill:#f2f2f2;fill-opacity:1;stroke-width:0.264583"
         d="m -537.6881,-106.85094 c -3.83646,0 -6.91224,1.15755 -9.22735,3.47265 -2.29859,2.3151 -3.44786,5.399166 -3.44786,9.252156 v 21.97695 h 10.0707 v -21.62968 c 0,-2.06706 0.71107,-3.10059 2.13321,-3.10059 1.47174,0 2.20763,1.03353 2.20763,3.10059 v 21.62968 h 10.0707 v -21.62968 c 0,-4.2168 -1.01701,-7.449686 -3.05099,-9.698646 -2.01745,-2.24896 -4.93612,-3.37343 -8.75604,-3.37343 z m 29.91445,0 c -3.83646,0 -6.91224,1.15755 -9.22734,3.47265 -2.29857,2.3151 -3.44787,5.399166 -3.44787,9.252156 v 21.97695 h 10.07071 v -21.62968 c 0,-2.06706 0.71106,-3.10059 2.1332,-3.10059 1.47174,0 2.20763,1.03353 2.20763,3.10059 v 21.62968 h 10.0707 v -21.62968 c 0,-4.2168 -1.017,-7.449686 -3.05099,-9.698646 -2.01745,-2.24896 -4.93612,-3.37343 -8.75604,-3.37343 z m 185.29101,0 c -4.11757,0 -7.31739,1.15755 -9.59942,3.47265 -2.2655,2.29857 -3.39823,5.531456 -3.39823,9.698646 v 21.53046 h 10.0707 v -8.06152 h 2.90214 v -8.92969 h -2.90214 v -4.21679 c 0,-2.34818 0.78547,-3.52227 2.35643,-3.52227 0.81029,0 1.37253,0.25631 1.68672,0.76895 0.31419,0.51262 0.4713,1.4304 0.4713,2.75332 v 21.208 h 10.07071 v -21.87773 c 0,-4.36562 -0.95086,-7.590236 -2.85256,-9.673836 -1.90169,-2.10013 -4.8369,-3.15019 -8.80565,-3.15019 z m 29.74081,0 c -3.83646,0 -6.91224,1.15755 -9.22734,3.47265 -2.29857,2.3151 -3.44784,5.399166 -3.44784,9.252156 v 21.97695 h 10.0707 v -21.62968 c 0,-2.06706 0.71107,-3.10059 2.1332,-3.10059 1.47175,0 2.20761,1.03353 2.20761,3.10059 v 21.62968 h 10.0707 v -21.62968 c 0,-4.2168 -1.01698,-7.449686 -3.05096,-9.698646 -2.01748,-2.24896 -4.93615,-3.37343 -8.75607,-3.37343 z m -314.17617,0.84336 v 33.858396 h 10.07071 v -33.858396 z m 19.05,0 -8.68164,15.155666 7.66466,18.70273 h 11.31094 l -8.88008,-18.50429 8.92969,-15.354106 z m 23.66367,0 c -3.37343,0 -5.99445,0.89296 -7.86307,2.6789 -1.85208,1.78593 -2.77812,4.299486 -2.77812,7.540636 v 13.2705 c 0,3.3569 0.9839,5.92832 2.95174,7.71426 1.96784,1.7694 4.81211,2.6541 8.53281,2.6541 h 7.91271 v -9.67382 h -6.77169 c -1.17409,0 -1.9513,-0.10749 -2.33164,-0.32246 -0.38034,-0.23152 -0.5705,-0.70281 -0.5705,-1.41387 0,-0.62839 0.18191,-1.07487 0.54571,-1.33946 0.38034,-0.26458 1.01698,-0.39687 1.90994,-0.39687 h 6.57326 v -7.54063 h -5.55625 c -1.05833,0 -1.79422,-0.12402 -2.20763,-0.37207 -0.41341,-0.26458 -0.6201,-0.7276 -0.6201,-1.38906 0,-1.12448 0.86815,-1.68672 2.60447,-1.68672 h 6.42443 v -9.723436 z m 84.31115,0 c -3.37344,0 -5.99448,0.89296 -7.8631,2.6789 -1.85208,1.78593 -2.77812,4.299486 -2.77812,7.540636 v 13.2705 c 0,3.3569 0.98393,5.92832 2.95177,7.71426 1.96783,1.7694 4.81211,2.6541 8.53281,2.6541 h 7.91268 v -9.67382 h -6.77167 c -1.17408,0 -1.9513,-0.10749 -2.33164,-0.32246 -0.38033,-0.23152 -0.57052,-0.70281 -0.57052,-1.41387 0,-0.62839 0.1819,-1.07487 0.54571,-1.33946 0.38033,-0.26458 1.017,-0.39687 1.90997,-0.39687 h 6.57323 v -7.54063 h -5.55625 c -1.05833,0 -1.79419,-0.12402 -2.20761,-0.37207 -0.41341,-0.26458 -0.62013,-0.7276 -0.62013,-1.38906 0,-1.12448 0.86816,-1.68672 2.60451,-1.68672 h 6.4244 v -9.723436 z m 11.48456,0 v 9.723436 h 7.71427 v 24.13496 h 10.0707 v -24.13496 h 7.68945 v -9.723436 z m 29.19513,0 v 33.858396 h 10.0707 v -12.82402 h 2.80292 v -8.92969 h -2.80292 v -12.104686 z m 14.58515,0 v 33.858396 h 10.07071 v -33.858396 z m 29.54237,0 v 33.858396 h 10.0707 v -24.75507 h 1.78594 c 2.4474,0 3.6711,0.80202 3.6711,2.40605 0,1.81901 -1.05834,2.72852 -3.175,2.72852 h -0.79375 v 8.70644 l 4.88653,10.91406 h 10.5668 l -5.8043,-13.96503 c 2.9931,-2.34818 4.48964,-5.23379 4.48964,-8.65684 0,-3.3569 -1.20716,-6.126766 -3.62149,-8.309576 -2.16627,-1.9513 -5.21724,-2.92695 -9.15291,-2.92695 z m 29.69123,0 v 21.629686 c 0,4.2168 1.00869,7.44967 3.02617,9.69864 2.03398,2.24896 4.96093,3.37343 8.78086,3.37343 3.83645,0 6.90395,-1.15755 9.20252,-3.47265 2.31511,-2.31511 3.47266,-5.40743 3.47266,-9.27696 v -21.952146 h -10.0707 v 21.604886 c 0,2.06706 -0.71107,3.10058 -2.13321,3.10058 -1.47174,0 -2.2076,-1.03352 -2.2076,-3.10058 v -21.604886 z" />
    </g>
  </g>
</svg>
